<svg width="165" height="47" viewBox="0 0 190 47" fill="none" xmlns="http://www.w3.org/2000/svg">
	<path d="M101.469 18.8H114.498V23.0727H101.469V18.8ZM114.045 6.03879C113.667 5.39313 113.214 4.99434 112.685 4.84242C112.194 4.65252 111.722 4.55757 111.269 4.55757C110.703 4.55757 110.212 4.72848 109.796 5.0703C109.419 5.37414 109.116 5.90586 108.89 6.66545C108.663 7.42505 108.55 8.43151 108.55 9.68485V45.0061H104.018V9.11515C104.018 7.02626 104.32 5.31717 104.925 3.98788C105.529 2.65858 106.378 1.67111 107.474 1.02545C108.607 0.341818 109.966 0 111.552 0C112.383 0 113.119 0.113939 113.761 0.341817C114.403 0.569695 114.951 0.854543 115.404 1.19636C115.895 1.53818 116.273 1.89899 116.537 2.27879L114.045 6.03879Z" fill="#78D36B"/>
	<path d="M117.394 0.569696H121.926V45.0061H117.394V0.569696Z" fill="#78D36B"/>
	<path d="M125.918 31.903C125.918 29.2444 126.503 26.8897 127.674 24.8388C128.883 22.7879 130.506 21.1737 132.546 19.9964C134.585 18.819 136.87 18.2303 139.4 18.2303C141.968 18.2303 144.253 18.819 146.254 19.9964C148.294 21.1737 149.899 22.7879 151.069 24.8388C152.278 26.8897 152.882 29.2444 152.882 31.903C152.882 34.5236 152.278 36.8784 151.069 38.9673C149.899 41.0182 148.294 42.6323 146.254 43.8097C144.253 44.9871 141.968 45.5758 139.4 45.5758C136.87 45.5758 134.585 44.9871 132.546 43.8097C130.506 42.6323 128.883 41.0182 127.674 38.9673C126.503 36.8784 125.918 34.5236 125.918 31.903ZM130.506 31.903C130.506 33.7261 130.884 35.3402 131.639 36.7455C132.432 38.1507 133.49 39.2711 134.812 40.1067C136.171 40.9042 137.701 41.303 139.4 41.303C141.099 41.303 142.61 40.9042 143.932 40.1067C145.291 39.2711 146.349 38.1507 147.104 36.7455C147.897 35.3402 148.294 33.7261 148.294 31.903C148.294 30.08 147.897 28.4659 147.104 27.0606C146.349 25.6174 145.291 24.497 143.932 23.6994C142.61 22.9018 141.099 22.503 139.4 22.503C137.701 22.503 136.171 22.9018 134.812 23.6994C133.49 24.497 132.432 25.6174 131.639 27.0606C130.884 28.4659 130.506 30.08 130.506 31.903Z" fill="#78D36B"/>
	<path d="M152.046 18.8H157.145L163.659 35.8339L170.74 16.8061L178.331 35.9479L184.902 18.8H190L178.671 47L170.797 27.9151L163.376 47L152.046 18.8Z" fill="#78D36B"/>
	<path d="M7.47741 31.903C7.47741 33.4222 7.81729 34.7515 8.49706 35.8909C9.17682 37.0303 10.0832 37.9228 11.2161 38.5685C12.3868 39.2141 13.6708 39.537 15.0681 39.537C16.2011 39.537 17.2962 39.3661 18.3536 39.0242C19.4111 38.6444 20.3552 38.1507 21.186 37.543C22.0546 36.8974 22.7155 36.1568 23.1686 35.3212V42.8982C22.2623 43.7337 21.0727 44.3984 19.5999 44.8921C18.1648 45.3479 16.4843 45.5758 14.5583 45.5758C11.8015 45.5758 9.309 45.0061 7.08088 43.8667C4.89053 42.7273 3.15335 41.1321 1.86935 39.0812C0.623118 36.9923 0 34.5996 0 31.903C0 29.1685 0.623118 26.7758 1.86935 24.7248C3.15335 22.6739 4.89053 21.0788 7.08088 19.9394C9.309 18.8 11.8015 18.2303 14.5583 18.2303C16.4843 18.2303 18.1648 18.4772 19.5999 18.9709C21.0727 19.4267 22.2623 20.0533 23.1686 20.8509V28.4279C22.7155 27.5923 22.0357 26.8707 21.1294 26.263C20.2608 25.6174 19.2978 25.1236 18.2404 24.7818C17.1829 24.44 16.1255 24.2691 15.0681 24.2691C13.6708 24.2691 12.3868 24.6109 11.2161 25.2945C10.0832 25.9402 9.17682 26.8327 8.49706 27.9721C7.81729 29.1115 7.47741 30.4218 7.47741 31.903Z" fill="#00A676"/>
	<path d="M32.5867 36.8594C32.5867 37.619 32.7755 38.2836 33.1531 38.8533C33.5308 39.385 34.0406 39.8028 34.6826 40.1067C35.3624 40.3725 36.0988 40.5055 36.8918 40.5055C38.0248 40.5055 39.0444 40.2776 39.9508 39.8218C40.8571 39.3281 41.5935 38.6444 42.16 37.7709C42.7265 36.8594 43.0097 35.777 43.0097 34.5236L43.9161 37.9418C43.9161 39.6129 43.444 41.0182 42.4999 42.1576C41.5935 43.297 40.404 44.1515 38.9311 44.7212C37.4961 45.2909 35.9855 45.5758 34.3994 45.5758C32.7755 45.5758 31.2649 45.2529 29.8676 44.6073C28.4703 43.9616 27.3374 43.0311 26.4688 41.8158C25.638 40.5624 25.2225 39.0432 25.2225 37.2582C25.2225 34.7135 26.11 32.7006 27.885 31.2194C29.6599 29.7382 32.1713 28.9976 35.419 28.9976C37.0807 28.9976 38.5346 29.1685 39.7808 29.5103C41.0648 29.8521 42.1411 30.2699 43.0097 30.7636C43.8783 31.2574 44.5014 31.7321 44.8791 32.1879V35.6061C43.8594 34.8465 42.7076 34.2768 41.4236 33.897C40.1774 33.5172 38.8556 33.3273 37.4583 33.3273C36.3254 33.3273 35.4001 33.4792 34.6826 33.783C33.9651 34.0489 33.4364 34.4477 33.0965 34.9794C32.7566 35.4731 32.5867 36.0998 32.5867 36.8594ZM29.7543 26.2061L27.0353 21.1927C28.3948 20.4711 30.0564 19.7875 32.0202 19.1418C33.984 18.4582 36.1743 18.1164 38.5913 18.1164C40.8194 18.1164 42.802 18.4392 44.5392 19.0848C46.2764 19.7305 47.6359 20.68 48.6178 21.9333C49.5997 23.1487 50.0906 24.6489 50.0906 26.4339V45.0061H43.0097V27.9721C43.0097 27.2505 42.8964 26.6428 42.6698 26.1491C42.4433 25.6174 42.0845 25.1806 41.5935 24.8388C41.1404 24.497 40.5928 24.2501 39.9508 24.0982C39.3088 23.9463 38.5913 23.8703 37.7982 23.8703C36.5897 23.8703 35.4379 24.0032 34.3427 24.2691C33.2475 24.5349 32.3034 24.8578 31.5104 25.2376C30.7173 25.6174 30.132 25.9402 29.7543 26.2061Z" fill="#00A676"/>
	<path d="M55.9527 35.9479C57.0479 36.9733 58.0675 37.8089 59.0116 38.4545C59.9558 39.0622 60.8432 39.518 61.674 39.8218C62.5426 40.1257 63.3546 40.2776 64.1099 40.2776C65.0918 40.2776 65.847 40.0687 66.3758 39.6509C66.9045 39.1952 67.1688 38.5875 67.1688 37.8279C67.1688 37.1442 66.9422 36.5745 66.489 36.1188C66.0736 35.625 65.4505 35.1883 64.6197 34.8085C63.7889 34.4287 62.7315 34.0299 61.4475 33.6121C60.239 33.1564 59.0683 32.6246 57.9353 32.017C56.8024 31.3713 55.8583 30.5358 55.103 29.5103C54.3855 28.4469 54.0267 27.0986 54.0267 25.4655C54.0267 23.9083 54.4421 22.598 55.2729 21.5345C56.1038 20.4331 57.2178 19.6166 58.6151 19.0848C60.0502 18.5151 61.6363 18.2303 63.3735 18.2303C64.8463 18.2303 66.2247 18.4202 67.5087 18.8C68.7927 19.1798 69.9823 19.6925 71.0775 20.3382C72.1726 20.9459 73.1356 21.6675 73.9665 22.503L70.7376 27.0606C69.7935 26.0351 68.6605 25.1996 67.3387 24.5539C66.0547 23.9083 64.7896 23.5855 63.5434 23.5855C62.7126 23.5855 62.0517 23.7564 61.5607 24.0982C61.1076 24.402 60.881 24.8768 60.881 25.5224C60.881 26.0921 61.1076 26.6048 61.5607 27.0606C62.0517 27.4784 62.7315 27.8582 63.6 28.2C64.5064 28.5418 65.526 28.9596 66.659 29.4533C68.0563 29.985 69.3403 30.5927 70.511 31.2764C71.7195 31.922 72.6825 32.7386 73.4 33.7261C74.1175 34.7135 74.4763 36.0048 74.4763 37.6C74.4763 40.2206 73.6266 42.2715 71.9272 43.7527C70.2278 45.196 67.8863 45.9176 64.9029 45.9176C63.0525 45.9176 61.353 45.6707 59.8047 45.177C58.2941 44.6832 56.9157 44.0376 55.6695 43.24C54.461 42.4044 53.3658 41.5119 52.3839 40.5624L55.9527 35.9479Z" fill="#00A676"/>
	<path d="M84.6418 0.569696V45.0061H77.2777V0.569696H84.6418ZM94.1018 29.0545C94.1018 27.3075 93.762 25.9782 93.0822 25.0667C92.4402 24.1551 91.345 23.6994 89.7967 23.6994C88.777 23.6994 87.8707 23.9273 87.0776 24.383C86.2845 24.8008 85.6803 25.4085 85.2649 26.2061C84.8495 27.0036 84.6418 27.9531 84.6418 29.0545H83.1689C83.1689 26.9657 83.5088 25.0857 84.1886 23.4145C84.9061 21.7434 85.9635 20.4141 87.3608 19.4267C88.7581 18.4392 90.4764 17.9455 92.5157 17.9455C94.555 17.9455 96.2355 18.3253 97.5573 19.0848C98.8791 19.8444 99.8609 20.9838 100.503 22.503C101.145 23.9842 101.466 25.8073 101.466 27.9721V45.0061H94.1018V29.0545Z" fill="#00A676"/>
</svg>
